<svg width="500" height="450" viewBox="0 0 1083 450" fill="none" xmlns="http://www.w3.org/2000/svg">
<g id="undraw_code_thinking_1jeh 1" clip-path="url(#clip0)">
<g id="Group 3">
<path id="Vector" d="M77.591 390.495L52.772 388.84L61.045 426.069L89.173 414.487L77.591 390.495Z" fill="#FFB9B9"/>
<path id="Vector_2" d="M305.1 321.001L247.189 264.744L214.096 290.391L148.739 368.985L156.185 380.567L235.606 326.792L289.381 397.113L340.674 371.467L305.1 321.001Z" fill="#2F2E41"/>
<path id="Vector_3" opacity="0.1" d="M305.1 321.001L247.189 264.744L214.096 290.391L148.739 368.985L156.185 380.567L235.606 326.792L289.381 397.113L340.674 371.467L305.1 321.001Z" fill="black"/>
<path id="Vector_4" d="M310.064 358.23L302.618 364.021L242.225 343.338L228.161 337.547L200.032 343.338C200.032 343.338 200.032 320.174 226.506 321.001L253.807 327.62L286.072 330.101L310.064 358.23Z" fill="#FFB9B9"/>
<path id="Vector_5" d="M363.839 419.451L345.638 431.033H324.128L224.024 393.804L77.591 420.278L73.454 388.84L207.478 330.102L324.956 368.985L363.839 419.451Z" fill="#2F2E41"/>
<path id="Vector_6" d="M246.361 272.19L233.952 274.672L231.248 271.517C229.107 269.019 227.75 265.946 227.348 262.68C226.946 259.415 227.517 256.104 228.988 253.162L263.735 207.66C263.735 207.66 273.663 185.323 289.381 194.423C305.1 203.524 276.144 218.415 276.144 218.415L258.771 245.716L260.426 259.78L246.361 272.19Z" fill="#FFB9B9"/>
<path id="Vector_7" d="M324.956 218.415C342.775 218.415 357.22 203.97 357.22 186.15C357.22 168.331 342.775 153.885 324.956 153.885C307.136 153.885 292.691 168.331 292.691 186.15C292.691 203.97 307.136 218.415 324.956 218.415Z" fill="#FFB9B9"/>
<path id="Vector_8" d="M310.478 209.728L325.369 245.303L360.943 230.411C360.943 230.411 349.361 202.283 349.361 201.455C349.361 200.628 310.478 209.728 310.478 209.728Z" fill="#FFB9B9"/>
<path id="Vector_9" d="M408.439 314.97C408.439 334.442 405.37 353.793 399.347 372.311L396.931 379.74L385.349 432.688L372.939 435.997L363.839 424.414L345.638 411.178L332.401 389.668L321.051 370.755L317.51 364.848L305.1 302.8L257.944 276.327L242.225 273.845L245.534 264.744L259.598 245.716L273.663 244.062L277.799 240.752L281.108 242.407L294.345 234.961L298.482 236.616L322.672 238.866L337.365 235.789L358.495 224.446L367.148 225.861L396.931 250.68C404.545 271.259 408.441 293.028 408.439 314.97Z" fill="#575A89"/>
<path id="Vector_10" d="M60.3902 403.305C60.3902 403.305 67.8002 390.747 64.6704 389.28C61.5406 387.814 48.2488 381.969 48.2488 381.969L28.7567 375.509C28.7567 375.509 0.63066 333.708 0.0132905 370.059C-0.60408 406.41 20.4925 415.148 20.4925 415.148C20.4925 415.148 39.308 455.641 49.9662 449.184C60.6244 442.727 71.2895 420.808 71.2895 420.808C71.2895 420.808 52.0695 410.476 60.3902 403.305Z" fill="#2F2E41"/>
<path id="Vector_11" opacity="0.1" d="M399.413 307.764L367.975 328.447L321.051 370.755L317.51 364.848L307.582 315.21H310.064L335.711 268.054L399.413 307.764Z" fill="black"/>
<path id="Vector_12" d="M335.711 263.09L310.064 310.246H300.964L295.173 326.792L281.936 330.102L317.51 368.985L367.975 323.483L399.413 302.8L335.711 263.09Z" fill="#575A89"/>
<path id="Vector_13" d="M299.86 162.16L296.364 163.505C295.826 163.141 295.367 162.673 295.012 162.129C294.658 161.585 294.415 160.976 294.299 160.337C294.183 159.698 294.195 159.042 294.336 158.408C294.476 157.774 294.741 157.175 295.117 156.645L288.656 156.342C292.803 150.819 298.076 146.24 304.125 142.907C310.175 139.574 316.863 137.563 323.747 137.008C330.632 136.453 337.555 137.367 344.06 139.688C350.565 142.009 356.503 145.685 361.482 150.473C361.776 149.46 364.982 151.43 366.291 153.429C366.731 151.78 369.737 159.749 370.8 165.381C371.293 163.506 373.185 166.533 371.527 169.439C372.578 169.285 373.052 171.973 372.239 173.471C373.388 172.931 373.195 176.14 371.948 178.284C373.589 178.138 359.013 200.76 353.112 213.98C351.398 206.107 349.471 197.816 343.946 191.951C343.007 190.954 341.978 190.046 340.951 189.14L335.398 184.237C328.94 178.537 323.065 171.501 314.462 169.371C308.55 167.907 304.812 167.576 308.034 160.914C305.123 162.129 302.404 163.935 299.467 165.064C299.507 164.133 299.917 163.091 299.86 162.16Z" fill="#2F2E41"/>
<path id="Vector_14" d="M341.088 195.664C344.286 195.664 346.879 193.071 346.879 189.873C346.879 186.675 344.286 184.082 341.088 184.082C337.89 184.082 335.297 186.675 335.297 189.873C335.297 193.071 337.89 195.664 341.088 195.664Z" fill="#FFB9B9"/>
<path id="Vector_15" d="M206.439 59.7101H178.439V87.7101H206.439V59.7101Z" fill="#6C63FF"/>
<path id="Vector_16" d="M223.439 71.7101H189.439V37.7101H223.439V71.7101ZM190.917 70.2319H221.961V39.1884H190.917V70.2319Z" fill="#3F3D56"/>
<path id="Vector_17" d="M81.3339 173.175L73.6457 146.251L46.7219 153.939L54.41 180.863L81.3339 173.175Z" fill="#6C63FF"/>
<path id="Vector_18" d="M74.4629 192.817L65.1273 160.123L97.8205 150.788L107.156 183.481L74.4629 192.817ZM66.9547 161.139L75.4785 190.989L105.329 182.465L96.805 152.615L66.9547 161.139Z" fill="#3F3D56"/>
<path id="Vector_19" d="M74.3754 47.7769L93.4938 27.3199L73.0369 8.20152L53.9185 28.6585L74.3754 47.7769Z" fill="#6C63FF"/>
<path id="Vector_20" d="M54.0005 52.0036L77.2157 27.163L102.056 50.3782L78.8411 75.2188L54.0005 52.0036ZM77.2864 29.2524L56.0899 51.933L78.7705 73.1294L99.967 50.4488L77.2864 29.2524Z" fill="#3F3D56"/>
<path id="Vector_21" d="M1026.23 5.36232H766.062V0H648.091V5.36232H386.849C384.538 5.36232 382.25 5.81751 380.114 6.70192C377.979 7.58633 376.039 8.88263 374.405 10.5168C372.771 12.151 371.475 14.091 370.59 16.2262C369.706 18.3613 369.251 20.6497 369.251 22.9608V379.213C369.251 381.524 369.706 383.813 370.59 385.948C371.475 388.083 372.771 390.023 374.405 391.657C376.039 393.291 377.979 394.588 380.114 395.472C382.25 396.356 384.538 396.812 386.849 396.812H1026.23C1030.9 396.812 1035.38 394.957 1038.68 391.657C1041.98 388.357 1043.83 383.88 1043.83 379.213V22.9608C1043.83 20.6497 1043.38 18.3613 1042.49 16.2262C1041.61 14.091 1040.31 12.151 1038.68 10.5168C1037.04 8.88263 1035.1 7.58633 1032.97 6.70192C1030.83 5.81751 1028.54 5.36232 1026.23 5.36232Z" fill="#3F3D56"/>
<path id="Vector_22" d="M1020.24 36.4638H392.845V390.377H1020.24V36.4638Z" fill="#6C63FF"/>
<path id="Vector_23" d="M706.004 26.8116C709.558 26.8116 712.439 23.9306 712.439 20.3768C712.439 16.823 709.558 13.942 706.004 13.942C702.45 13.942 699.569 16.823 699.569 20.3768C699.569 23.9306 702.45 26.8116 706.004 26.8116Z" fill="#6C63FF"/>
<path id="Vector_24" opacity="0.1" d="M840.813 390.377H392.845V36.464L840.813 390.377Z" fill="black"/>
<path id="Vector_25" d="M981.848 43.644H957.356V68.1357H981.848V43.644Z" fill="#F2F2F2"/>
<path id="Vector_26" d="M993.219 79.5068H963.479V49.7668H993.219V79.5068ZM964.772 78.2138H991.926V51.0599H964.772V78.2138Z" fill="#3F3D56"/>
<path id="Vector_27" d="M1061.45 383.942H1000.22V379.53C1000.22 379.416 1000.19 379.302 1000.15 379.196C1000.11 379.09 1000.04 378.993 999.961 378.912C999.879 378.831 999.783 378.766 999.677 378.722C999.571 378.678 999.457 378.656 999.342 378.656H978.349C978.234 378.656 978.121 378.678 978.014 378.722C977.908 378.766 977.812 378.831 977.731 378.912C977.649 378.993 977.585 379.09 977.541 379.196C977.497 379.302 977.475 379.416 977.475 379.53V383.942H964.354V379.53C964.354 379.416 964.331 379.302 964.287 379.196C964.243 379.09 964.179 378.993 964.098 378.912C964.016 378.831 963.92 378.766 963.814 378.722C963.708 378.678 963.594 378.656 963.479 378.656H942.486C942.371 378.656 942.258 378.678 942.152 378.722C942.045 378.766 941.949 378.831 941.868 378.912C941.786 378.993 941.722 379.09 941.678 379.196C941.634 379.302 941.612 379.416 941.612 379.53V383.942H928.491V379.53C928.491 379.416 928.468 379.302 928.424 379.196C928.381 379.09 928.316 378.993 928.235 378.912C928.154 378.831 928.057 378.766 927.951 378.722C927.845 378.678 927.731 378.656 927.616 378.656H906.623C906.508 378.656 906.395 378.678 906.289 378.722C906.182 378.766 906.086 378.831 906.005 378.912C905.924 378.993 905.859 379.09 905.815 379.196C905.771 379.302 905.749 379.416 905.749 379.53V383.942H892.628V379.53C892.628 379.416 892.606 379.302 892.562 379.196C892.518 379.09 892.453 378.993 892.372 378.912C892.291 378.831 892.194 378.766 892.088 378.722C891.982 378.678 891.868 378.656 891.753 378.656H870.761C870.646 378.656 870.532 378.678 870.426 378.722C870.32 378.766 870.223 378.831 870.142 378.912C870.061 378.993 869.996 379.09 869.952 379.196C869.908 379.302 869.886 379.416 869.886 379.53V383.942H856.765V379.53C856.765 379.416 856.743 379.302 856.699 379.196C856.655 379.09 856.59 378.993 856.509 378.912C856.428 378.831 856.331 378.766 856.225 378.722C856.119 378.678 856.005 378.656 855.891 378.656H834.898C834.783 378.656 834.669 378.678 834.563 378.722C834.457 378.766 834.36 378.831 834.279 378.912C834.198 378.993 834.133 379.09 834.09 379.196C834.046 379.302 834.023 379.416 834.023 379.53V383.942H820.902V379.53C820.902 379.416 820.88 379.302 820.836 379.196C820.792 379.09 820.727 378.993 820.646 378.912C820.565 378.831 820.469 378.766 820.362 378.722C820.256 378.678 820.143 378.656 820.028 378.656H799.035C798.92 378.656 798.806 378.678 798.7 378.722C798.594 378.766 798.497 378.831 798.416 378.912C798.335 378.993 798.271 379.09 798.227 379.196C798.183 379.302 798.16 379.416 798.16 379.53V383.942H785.04V379.53C785.04 379.416 785.017 379.302 784.973 379.196C784.929 379.09 784.865 378.993 784.783 378.912C784.702 378.831 784.606 378.766 784.5 378.722C784.393 378.678 784.28 378.656 784.165 378.656H619.72C619.605 378.656 619.492 378.678 619.386 378.722C619.279 378.766 619.183 378.831 619.102 378.912C619.021 378.993 618.956 379.09 618.912 379.196C618.868 379.302 618.846 379.416 618.846 379.53V383.942H605.725V379.53C605.725 379.416 605.702 379.302 605.658 379.196C605.615 379.09 605.55 378.993 605.469 378.912C605.388 378.831 605.291 378.766 605.185 378.722C605.079 378.678 604.965 378.656 604.85 378.656H583.858C583.743 378.656 583.629 378.678 583.523 378.722C583.417 378.766 583.32 378.831 583.239 378.912C583.158 378.993 583.093 379.09 583.049 379.196C583.005 379.302 582.983 379.416 582.983 379.53V383.942H569.862V379.53C569.862 379.416 569.84 379.302 569.796 379.196C569.752 379.09 569.687 378.993 569.606 378.912C569.525 378.831 569.428 378.766 569.322 378.722C569.216 378.678 569.102 378.656 568.987 378.656H547.995C547.88 378.656 547.766 378.678 547.66 378.722C547.554 378.766 547.457 378.831 547.376 378.912C547.295 378.993 547.23 379.09 547.186 379.196C547.142 379.302 547.12 379.416 547.12 379.53V383.942H533.999V379.53C533.999 379.416 533.977 379.302 533.933 379.196C533.889 379.09 533.824 378.993 533.743 378.912C533.662 378.831 533.565 378.766 533.459 378.722C533.353 378.678 533.239 378.656 533.125 378.656H512.132C512.017 378.656 511.903 378.678 511.797 378.722C511.691 378.766 511.594 378.831 511.513 378.912C511.432 378.993 511.368 379.09 511.324 379.196C511.28 379.302 511.257 379.416 511.257 379.53V383.942H498.136V379.53C498.136 379.416 498.114 379.302 498.07 379.196C498.026 379.09 497.961 378.993 497.88 378.912C497.799 378.831 497.703 378.766 497.596 378.722C497.49 378.678 497.377 378.656 497.262 378.656H476.269C476.154 378.656 476.04 378.678 475.934 378.722C475.828 378.766 475.732 378.831 475.65 378.912C475.569 378.993 475.505 379.09 475.461 379.196C475.417 379.302 475.394 379.416 475.394 379.53V383.942H462.274V379.53C462.274 379.416 462.251 379.302 462.207 379.196C462.163 379.09 462.099 378.993 462.017 378.912C461.936 378.831 461.84 378.766 461.734 378.722C461.627 378.678 461.514 378.656 461.399 378.656H440.406C440.291 378.656 440.177 378.678 440.071 378.722C439.965 378.766 439.869 378.831 439.787 378.912C439.706 378.993 439.642 379.09 439.598 379.196C439.554 379.302 439.531 379.416 439.531 379.53V383.942H426.411V379.53C426.411 379.416 426.388 379.302 426.344 379.196C426.3 379.09 426.236 378.993 426.154 378.912C426.073 378.831 425.977 378.766 425.871 378.722C425.765 378.678 425.651 378.656 425.536 378.656H404.543C404.428 378.656 404.314 378.678 404.208 378.722C404.102 378.766 404.006 378.831 403.925 378.912C403.843 378.993 403.779 379.09 403.735 379.196C403.691 379.302 403.668 379.416 403.668 379.53V383.942H363.432C357.864 383.942 352.525 386.154 348.588 390.091C344.651 394.028 342.439 399.367 342.439 404.935V414.427C342.439 419.995 344.651 425.335 348.588 429.272C352.525 433.209 357.864 435.42 363.432 435.42H1061.45C1067.01 435.42 1072.35 433.209 1076.29 429.272C1080.23 425.335 1082.44 419.995 1082.44 414.427V404.935C1082.44 399.367 1080.23 394.028 1076.29 390.091C1072.35 386.154 1067.01 383.942 1061.45 383.942Z" fill="#3F3D56"/>
</g>
<g id="cirlcles">
<path id="Vector_28" d="M491.013 363.893C524.319 363.893 551.32 336.893 551.32 303.587C551.32 270.28 524.319 243.28 491.013 243.28C457.706 243.28 430.706 270.28 430.706 303.587C430.706 336.893 457.706 363.893 491.013 363.893Z" fill="#F2F2F2"/>
<path id="Vector_29" d="M504.438 348.913C489.601 348.913 475.097 344.513 462.761 336.271C450.425 328.028 440.81 316.312 435.132 302.604C429.454 288.897 427.969 273.814 430.863 259.262C433.758 244.711 440.902 231.344 451.394 220.853C461.885 210.362 475.251 203.217 489.803 200.323C504.355 197.428 519.438 198.914 533.145 204.592C546.852 210.269 558.568 219.884 566.811 232.221C575.054 244.557 579.454 259.06 579.454 273.897C579.431 293.786 571.52 312.853 557.457 326.917C543.394 340.98 524.326 348.89 504.438 348.913ZM504.438 199.862C489.795 199.862 475.481 204.204 463.306 212.339C451.131 220.474 441.642 232.037 436.038 245.565C430.435 259.093 428.968 273.979 431.825 288.341C434.682 302.702 441.733 315.894 452.087 326.248C462.441 336.602 475.633 343.653 489.994 346.51C504.356 349.366 519.242 347.9 532.77 342.297C546.298 336.693 557.861 327.204 565.996 315.029C574.131 302.854 578.473 288.54 578.473 273.897C578.451 254.269 570.643 235.45 556.764 221.571C542.885 207.691 524.066 199.884 504.438 199.862Z" fill="#3F3D56"/>
</g>
<path id="svg-button" d="M910.997 227.332H852.392V239.578H910.997V227.332Z" fill="#3F3D56"/>
<g id="lines">
<path id="Vector_30" d="M981.848 131.989H781.541V137.237H981.848V131.989Z" fill="#3F3D56"/>
<path id="Vector_31" d="M981.848 148.608H781.541V153.857H981.848V148.608Z" fill="#3F3D56"/>
<path id="Vector_32" d="M981.848 165.228H781.541V170.476H981.848V165.228Z" fill="#3F3D56"/>
<path id="Vector_33" d="M981.848 181.847H781.541V187.095H981.848V181.847Z" fill="#3F3D56"/>
<path id="Vector_34" d="M981.848 198.467H781.541V203.715H981.848V198.467Z" fill="#3F3D56"/>
</g>
</g>
<defs>
<clipPath id="clip0">
<rect width="1082.44" height="449.881" fill="white"/>
</clipPath>
</defs>
</svg>
